<svg width="56" height="55" viewBox="0 0 56 55" fill="none" xmlns="http://www.w3.org/2000/svg">
<rect width="56" height="55" rx="8" fill="#758FF5"/>
<g clip-path="url(#clip0_190_223)">
<path d="M43 15.254L40.2669 45.6219L27.9816 49L15.7302 45.6266L13 15.254H43Z" fill="#264DE4"/>
<path d="M37.9271 43.6882L40.2627 17.7374H28V46.4179L37.9271 43.6882Z" fill="#2965F1"/>
<path d="M19.2589 29.0022L19.5955 32.7272H28V29.0022H19.2589Z" fill="#EBEBEB"/>
<path d="M28 21.4625H27.987H18.5825L18.9239 25.1876H28V21.4625Z" fill="#EBEBEB"/>
<path d="M28 42.5523V38.6766L27.9835 38.681L23.8008 37.5607L23.5334 34.5898H21.5009H19.7633L20.2895 40.4387L27.9827 42.557L28 42.5523Z" fill="#EBEBEB"/>
<path d="M20.0603 7H24.6091V8.88672H21.9625V10.7734H24.6091V12.6602H20.0603V7Z" fill="black"/>
<path d="M25.5188 7H30.0676V8.64062H27.421V8.96875H30.0676V12.7422H25.5188V11.0195H28.1654V10.6914H25.5188V7Z" fill="black"/>
<path d="M30.9773 7H35.5261V8.64062H32.8795V8.96875H35.5261V12.7422H30.9773V11.0195H33.6239V10.6914H30.9773V7Z" fill="black"/>
<path d="M32.6116 32.7272L32.1757 37.5584L27.9869 38.6797V42.5552L35.6863 40.4387L35.7428 39.8094L36.6253 30.0025L36.717 29.0022L37.395 21.4625H27.9869V25.1876H33.2791L32.9373 29.0022H27.9869V32.7272H32.6116Z" fill="white"/>
</g>
<defs>
<clipPath id="clip0_190_223">
<rect width="30" height="42" fill="white" transform="translate(13 7)"/>
</clipPath>
</defs>
</svg>
