<svg width="36" height="28" viewBox="0 0 36 28" fill="none" xmlns="http://www.w3.org/2000/svg">
<path d="M30.1461 2.30717C27.8425 1.22934 25.3793 0.446027 22.8041 0C22.4879 0.571791 22.1184 1.34086 21.8636 1.95266C19.1261 1.54097 16.4138 1.54097 13.7267 1.95266C13.472 1.34086 13.0941 0.571791 12.775 0C10.1971 0.446027 7.73106 1.23222 5.42741 2.31287C0.780916 9.33433 -0.478671 16.1814 0.151124 22.9312C3.23292 25.2326 6.21955 26.6307 9.15578 27.5455C9.88075 26.5477 10.5273 25.4871 11.0843 24.3692C10.0235 23.9661 9.00743 23.4687 8.04737 22.8912C8.30207 22.7025 8.55121 22.5052 8.7919 22.3022C14.6476 25.0411 21.0099 25.0411 26.7956 22.3022C27.0392 22.5052 27.2883 22.7025 27.5402 22.8912C26.5773 23.4715 25.5584 23.969 24.4976 24.3721C25.0546 25.4871 25.6984 26.5506 26.4262 27.5483C29.3652 26.6335 32.3546 25.2355 35.4364 22.9312C36.1754 15.1064 34.174 8.32227 30.1461 2.30717ZM11.8821 18.7801C10.1243 18.7801 8.68273 17.1391 8.68273 15.1407C8.68273 13.1424 10.0935 11.4985 11.8821 11.4985C13.6707 11.4985 15.1122 13.1395 15.0815 15.1407C15.0842 17.1391 13.6707 18.7801 11.8821 18.7801ZM23.7055 18.7801C21.9476 18.7801 20.5061 17.1391 20.5061 15.1407C20.5061 13.1424 21.9168 11.4985 23.7055 11.4985C25.494 11.4985 26.9356 13.1395 26.9048 15.1407C26.9048 17.1391 25.494 18.7801 23.7055 18.7801Z" fill="#0D0D0D"/>
<path d="M30.1461 2.30717C27.8425 1.22934 25.3793 0.446027 22.8041 0C22.4879 0.571791 22.1184 1.34086 21.8636 1.95266C19.1261 1.54097 16.4138 1.54097 13.7267 1.95266C13.472 1.34086 13.0941 0.571791 12.775 0C10.1971 0.446027 7.73106 1.23222 5.42741 2.31287C0.780916 9.33433 -0.478671 16.1814 0.151124 22.9312C3.23292 25.2326 6.21955 26.6307 9.15578 27.5455C9.88075 26.5477 10.5273 25.4871 11.0843 24.3692C10.0235 23.9661 9.00743 23.4687 8.04737 22.8912C8.30207 22.7025 8.55121 22.5052 8.7919 22.3022C14.6476 25.0411 21.0099 25.0411 26.7956 22.3022C27.0392 22.5052 27.2883 22.7025 27.5402 22.8912C26.5773 23.4715 25.5584 23.969 24.4976 24.3721C25.0546 25.4871 25.6984 26.5506 26.4262 27.5483C29.3652 26.6335 32.3546 25.2355 35.4364 22.9312C36.1754 15.1064 34.174 8.32227 30.1461 2.30717ZM11.8821 18.7801C10.1243 18.7801 8.68273 17.1391 8.68273 15.1407C8.68273 13.1424 10.0935 11.4985 11.8821 11.4985C13.6707 11.4985 15.1122 13.1395 15.0815 15.1407C15.0842 17.1391 13.6707 18.7801 11.8821 18.7801ZM23.7055 18.7801C21.9476 18.7801 20.5061 17.1391 20.5061 15.1407C20.5061 13.1424 21.9168 11.4985 23.7055 11.4985C25.494 11.4985 26.9356 13.1395 26.9048 15.1407C26.9048 17.1391 25.494 18.7801 23.7055 18.7801Z" fill="black" fill-opacity="0.2"/>
</svg>
