<svg width="29" height="28" viewBox="0 0 29 28" fill="none" xmlns="http://www.w3.org/2000/svg">
<path fill-rule="evenodd" clip-rule="evenodd" d="M14.5 0C6.48875 0 0 6.42347 0 14.3541C0 20.7058 4.15062 26.0707 9.91437 27.9726C10.6394 28.0982 10.9112 27.6676 10.9112 27.2908C10.9112 26.9498 10.8931 25.8195 10.8931 24.6173C7.25 25.2812 6.3075 23.7381 6.0175 22.9307C5.85437 22.518 5.1475 21.2441 4.53125 20.9032C4.02375 20.634 3.29875 19.9702 4.51313 19.9522C5.655 19.9343 6.47063 20.9929 6.7425 21.4235C8.0475 23.5946 10.1319 22.9845 10.9656 22.6077C11.0925 21.6747 11.4731 21.0467 11.89 20.6879C8.66375 20.329 5.2925 19.091 5.2925 13.6005C5.2925 12.0395 5.85438 10.7476 6.77875 9.74285C6.63375 9.384 6.12625 7.91271 6.92375 5.93901C6.92375 5.93901 8.13813 5.56222 10.9112 7.41031C12.0712 7.08734 13.3038 6.92586 14.5363 6.92586C15.7688 6.92586 17.0013 7.08734 18.1613 7.41031C20.9344 5.54428 22.1488 5.93901 22.1488 5.93901C22.9463 7.91271 22.4388 9.384 22.2938 9.74285C23.2181 10.7476 23.78 12.0216 23.78 13.6005C23.78 19.1089 20.3906 20.329 17.1644 20.6879C17.69 21.1364 18.1431 21.9977 18.1431 23.3434C18.1431 25.2632 18.125 26.8063 18.125 27.2908C18.125 27.6676 18.3969 28.1161 19.1219 27.9726C24.8494 26.0707 29 20.6879 29 14.3541C29 6.42347 22.5113 0 14.5 0Z" fill="#0D0D0D"/>
<path fill-rule="evenodd" clip-rule="evenodd" d="M14.5 0C6.48875 0 0 6.42347 0 14.3541C0 20.7058 4.15062 26.0707 9.91437 27.9726C10.6394 28.0982 10.9112 27.6676 10.9112 27.2908C10.9112 26.9498 10.8931 25.8195 10.8931 24.6173C7.25 25.2812 6.3075 23.7381 6.0175 22.9307C5.85437 22.518 5.1475 21.2441 4.53125 20.9032C4.02375 20.634 3.29875 19.9702 4.51313 19.9522C5.655 19.9343 6.47063 20.9929 6.7425 21.4235C8.0475 23.5946 10.1319 22.9845 10.9656 22.6077C11.0925 21.6747 11.4731 21.0467 11.89 20.6879C8.66375 20.329 5.2925 19.091 5.2925 13.6005C5.2925 12.0395 5.85438 10.7476 6.77875 9.74285C6.63375 9.384 6.12625 7.91271 6.92375 5.93901C6.92375 5.93901 8.13813 5.56222 10.9112 7.41031C12.0712 7.08734 13.3038 6.92586 14.5363 6.92586C15.7688 6.92586 17.0013 7.08734 18.1613 7.41031C20.9344 5.54428 22.1488 5.93901 22.1488 5.93901C22.9463 7.91271 22.4388 9.384 22.2938 9.74285C23.2181 10.7476 23.78 12.0216 23.78 13.6005C23.78 19.1089 20.3906 20.329 17.1644 20.6879C17.69 21.1364 18.1431 21.9977 18.1431 23.3434C18.1431 25.2632 18.125 26.8063 18.125 27.2908C18.125 27.6676 18.3969 28.1161 19.1219 27.9726C24.8494 26.0707 29 20.6879 29 14.3541C29 6.42347 22.5113 0 14.5 0Z" fill="black" fill-opacity="0.2"/>
</svg>
