<svg width="56" height="55" viewBox="0 0 56 55" fill="none" xmlns="http://www.w3.org/2000/svg">
<rect width="56" height="55" rx="8" fill="#FF7A58"/>
<g clip-path="url(#clip0_190_224)">
<path d="M15.8922 7H17.7789V8.87031H19.518V7H21.4047V12.6602H19.518V10.7734H17.7953V12.6602H15.8922V7ZM23.8985 8.88672H22.2332V7H27.4586V8.88672H25.7852V12.6602H23.8985V8.88672ZM28.2871 7H30.2641L31.4781 8.99336L32.6922 7H34.6692V12.6602H32.7824V9.85469L31.4617 11.8891L30.141 9.85469V12.6602H28.2871V7ZM35.6043 7H37.491V10.7898H40.1653V12.6602H35.6043" fill="black"/>
<path d="M15.8265 45.6367L13.1195 15.2523H42.8804L40.1734 45.6203L27.9754 49" fill="#E44D26"/>
<path d="M28 46.416V17.7461H40.1652L37.8437 43.668" fill="#F16529"/>
<path d="M18.6484 21.4621H28V25.1863H22.7336L23.0781 29.0008H28V32.7168H19.6656L18.6484 21.4621ZM19.8297 34.5871H23.5703L23.8328 37.5648L28 38.6805V42.5687L20.3547 40.4359" fill="#EBEBEB"/>
<path d="M37.3188 21.4621H27.9836V25.1863H36.9743L37.3188 21.4621ZM36.6379 29.0008H27.9836V32.725H32.5774L32.1426 37.5648L27.9836 38.6805V42.5523L35.6125 40.4359" fill="white"/>
</g>
<defs>
<clipPath id="clip0_190_224">
<rect width="42" height="42" fill="white" transform="translate(7 7)"/>
</clipPath>
</defs>
</svg>
