<svg width="57" height="55" viewBox="0 0 57 55" fill="none" xmlns="http://www.w3.org/2000/svg">
<path d="M10.0938 0H46.9062C52.4875 0 57 4.46581 57 9.98932V45.0107C57 50.5342 52.4875 55 46.9062 55H10.0938C4.5125 55 0 50.5342 0 45.0107V9.98932C0 4.46581 4.5125 0 10.0938 0Z" fill="#00005B"/>
<path d="M13.5376 38.547V14.3376C13.5376 14.1731 13.6088 14.0791 13.7751 14.0791C14.1788 14.0791 14.5588 14.0791 15.1051 14.0556C15.6751 14.0321 16.2688 14.0321 16.9101 14.0086C17.5513 13.9851 18.2401 13.9851 18.9763 13.9616C19.7126 13.938 20.4251 13.938 21.1376 13.938C23.0851 13.938 24.7001 14.1731 26.0301 14.6667C27.2176 15.0663 28.3101 15.7244 29.2126 16.594C29.9726 17.3462 30.5663 18.2628 30.9464 19.2735C31.3026 20.2607 31.4926 21.2714 31.4926 22.3291C31.4926 24.3504 31.0176 26.0192 30.0676 27.3355C29.1176 28.6517 27.7876 29.6389 26.2438 30.203C24.6288 30.7906 22.8476 31.0022 20.9001 31.0022C20.3301 31.0022 19.9501 31.0022 19.7126 30.9786C19.4751 30.9551 19.1426 30.9551 18.6913 30.9551V38.5C18.7151 38.6645 18.5963 38.8056 18.4301 38.8291H18.3351H13.8226C13.6326 38.8291 13.5376 38.7351 13.5376 38.5235V38.547ZM18.7151 18.6389V26.5363C19.0476 26.5598 19.3563 26.5833 19.6413 26.5833H20.9001C21.8263 26.5833 22.7526 26.4423 23.6313 26.1603C24.3913 25.9487 25.0563 25.5022 25.5788 24.9145C26.0776 24.3269 26.3151 23.5278 26.3151 22.4936C26.3388 21.765 26.1488 21.0363 25.7688 20.4017C25.3651 19.7906 24.7951 19.3205 24.1063 19.062C23.2276 18.7094 22.2776 18.5684 21.3038 18.5919C20.6863 18.5919 20.1401 18.5919 19.6888 18.6154C19.2138 18.5919 18.8813 18.6154 18.7151 18.6389Z" fill="#9999FF"/>
<path d="M34.9127 20.0257H39.069C39.3065 20.0257 39.4965 20.1902 39.5677 20.4017C39.639 20.5898 39.6865 20.7778 39.7102 20.9894C39.7577 21.2244 39.8052 21.4829 39.829 21.718C39.8527 21.9765 39.8765 22.2586 39.8765 22.5641C40.589 21.7415 41.444 21.0599 42.4177 20.5428C43.5102 19.9317 44.769 19.6261 46.0277 19.6261C46.194 19.6026 46.3365 19.7201 46.3602 19.8846V19.9787V24.562C46.3602 24.75 46.2415 24.8205 45.9802 24.8205C45.1252 24.797 44.2465 24.8676 43.4152 25.0556C42.7265 25.1966 42.0615 25.4082 41.4202 25.6902C40.969 25.9017 40.5415 26.1838 40.209 26.5599V38.547C40.209 38.7821 40.114 38.8761 39.9002 38.8761H35.2215C35.0315 38.8996 34.8652 38.7821 34.8415 38.594V38.5V25.4787C34.8415 24.9146 34.8415 24.327 34.8177 23.7158C34.794 23.1047 34.794 22.4936 34.7702 21.8825C34.7702 21.3419 34.7227 20.8248 34.6752 20.2842C34.6515 20.1667 34.7227 20.0492 34.8415 20.0257C34.8415 20.0022 34.889 20.0022 34.9127 20.0257Z" fill="#9999FF"/>
</svg>
