<svg width="56" height="55" viewBox="0 0 56 55" fill="none" xmlns="http://www.w3.org/2000/svg">
<rect width="56" height="55" rx="8" fill="#00237D"/>
<g clip-path="url(#clip0_190_225)">
<path d="M28.5 31.407C30.7151 31.407 32.5109 29.6578 32.5109 27.5C32.5109 25.3423 30.7151 23.593 28.5 23.593C26.2849 23.593 24.4891 25.3423 24.4891 27.5C24.4891 29.6578 26.2849 31.407 28.5 31.407Z" fill="#61DAFB"/>
<path d="M28.5 35.5045C40.3861 35.5045 50.0218 31.9208 50.0218 27.5C50.0218 23.0792 40.3861 19.4955 28.5 19.4955C16.6139 19.4955 6.97827 23.0792 6.97827 27.5C6.97827 31.9208 16.6139 35.5045 28.5 35.5045Z" stroke="#61DAFB"/>
<path d="M21.3835 31.5022C27.3266 41.5292 35.3305 47.8659 39.2609 45.6555C43.1912 43.4451 41.5595 33.5247 35.6165 23.4977C29.6734 13.4707 21.6694 7.13409 17.7391 9.34448C13.8088 11.5549 15.4405 21.4752 21.3835 31.5022Z" stroke="#61DAFB"/>
<path d="M21.3836 23.4977C15.4406 33.5248 13.8089 43.4451 17.7392 45.6555C21.6696 47.8659 29.6735 41.5293 35.6166 31.5022C41.5596 21.4752 43.1913 11.5549 39.261 9.34449C35.3307 7.13411 27.3267 13.4707 21.3836 23.4977Z" stroke="#61DAFB"/>
</g>
<defs>
<clipPath id="clip0_190_225">
<rect width="45" height="39" fill="white" transform="translate(6 8)"/>
</clipPath>
</defs>
</svg>
