<svg width="56" height="55" viewBox="0 0 56 55" fill="none" xmlns="http://www.w3.org/2000/svg">
<rect width="56" height="55" rx="8" fill="#001447"/>
<path d="M27.5379 14.966C20.4319 15.1918 18.3199 20.268 17.8359 23.018C18.4666 21.9986 20.4539 19.762 23.3799 19.762C26.7899 19.762 29.3859 23.568 30.9699 24.756C32.8944 26.1993 36.7614 28.1051 41.8379 26.56C45.8859 25.328 47.7633 21.0306 48.1739 18.992C46.2159 21.654 43.2459 23.2529 39.5719 21.368C37.0419 20.07 35.1499 14.724 27.5379 14.966Z" fill="#07B6D5"/>
<path d="M17.484 27.044C10.378 27.2698 8.26598 32.346 7.78198 35.096C8.41265 34.0766 10.4 31.84 13.326 31.84C16.736 31.84 19.332 35.646 20.916 36.834C22.8404 38.2773 26.7074 40.1831 31.784 38.638C35.832 37.406 37.7093 33.1086 38.12 31.07C36.162 33.732 33.192 35.3309 29.518 33.446C26.988 32.148 25.096 26.802 17.484 27.044Z" fill="#07B6D5"/>
</svg>
