<svg width="34" height="28" viewBox="0 0 34 28" fill="none" xmlns="http://www.w3.org/2000/svg">
<path d="M10.6803 28C23.511 28 30.5299 17.2249 30.5299 7.89707C30.5299 7.59555 30.5299 7.28972 30.5171 6.9882C31.8836 5.9856 33.063 4.74434 34 3.32255C32.7235 3.89296 31.3709 4.26891 29.9859 4.43818C31.4448 3.55437 32.5374 2.16377 33.0607 0.52485C31.6901 1.34784 30.1899 1.92558 28.6259 2.23276C27.5744 1.09779 26.183 0.345913 24.6672 0.093581C23.1514 -0.158751 21.5958 0.102549 20.2413 0.837006C18.8869 1.57146 17.8092 2.73809 17.1752 4.15617C16.5412 5.57425 16.3863 7.16466 16.7344 8.68103C13.9607 8.54007 11.2472 7.80978 8.76997 6.53751C6.2927 5.26525 4.10695 3.47943 2.3545 1.29589C1.46485 2.85321 1.19334 4.69534 1.59512 6.44818C1.9969 8.20103 3.04184 9.73319 4.51775 10.7335C3.41177 10.6955 2.33011 10.3945 1.36 9.85481V9.95173C1.36191 11.5831 1.91953 13.1639 2.93861 14.4267C3.95769 15.6895 5.37571 16.557 6.953 16.8824C6.35431 17.0496 5.73586 17.1329 5.11488 17.1301C4.67709 17.1315 4.24018 17.0904 3.81012 17.0074C4.25592 18.4117 5.12396 19.6396 6.29265 20.519C7.46134 21.3984 8.87216 21.8852 10.3275 21.9114C7.85518 23.8795 4.80123 24.9469 1.6575 24.9417C1.10356 24.9441 0.549999 24.9117 0 24.8448C3.19072 26.9065 6.89626 28.0012 10.6803 28V28Z" fill="#0D0D0D"/>
<path d="M10.6803 28C23.511 28 30.5299 17.2249 30.5299 7.89707C30.5299 7.59555 30.5299 7.28972 30.5171 6.9882C31.8836 5.9856 33.063 4.74434 34 3.32255C32.7235 3.89296 31.3709 4.26891 29.9859 4.43818C31.4448 3.55437 32.5374 2.16377 33.0607 0.52485C31.6901 1.34784 30.1899 1.92558 28.6259 2.23276C27.5744 1.09779 26.183 0.345913 24.6672 0.093581C23.1514 -0.158751 21.5958 0.102549 20.2413 0.837006C18.8869 1.57146 17.8092 2.73809 17.1752 4.15617C16.5412 5.57425 16.3863 7.16466 16.7344 8.68103C13.9607 8.54007 11.2472 7.80978 8.76997 6.53751C6.2927 5.26525 4.10695 3.47943 2.3545 1.29589C1.46485 2.85321 1.19334 4.69534 1.59512 6.44818C1.9969 8.20103 3.04184 9.73319 4.51775 10.7335C3.41177 10.6955 2.33011 10.3945 1.36 9.85481V9.95173C1.36191 11.5831 1.91953 13.1639 2.93861 14.4267C3.95769 15.6895 5.37571 16.557 6.953 16.8824C6.35431 17.0496 5.73586 17.1329 5.11488 17.1301C4.67709 17.1315 4.24018 17.0904 3.81012 17.0074C4.25592 18.4117 5.12396 19.6396 6.29265 20.519C7.46134 21.3984 8.87216 21.8852 10.3275 21.9114C7.85518 23.8795 4.80123 24.9469 1.6575 24.9417C1.10356 24.9441 0.549999 24.9117 0 24.8448C3.19072 26.9065 6.89626 28.0012 10.6803 28V28Z" fill="black" fill-opacity="0.2"/>
</svg>
