<svg width="39" height="28" viewBox="0 0 39 28" fill="none" xmlns="http://www.w3.org/2000/svg">
<path d="M37.7736 4.45454C37.3272 2.74145 36.0394 1.4 34.3887 0.941814C32.1713 0.0534505 10.6943 -0.381822 4.46414 0.967269C2.81338 1.43054 1.52074 2.76691 1.07923 4.48C0.0784783 9.03636 0.00244058 18.8873 1.10376 23.5454C1.55018 25.2585 2.83791 26.6 4.48867 27.0582C8.87923 28.1069 29.7528 28.2545 34.4132 27.0582C36.0639 26.5949 37.3566 25.2585 37.7981 23.5454C38.8651 18.5818 38.9411 9.34181 37.7736 4.45454Z" fill="#0D0D0D"/>
<path d="M37.7736 4.45454C37.3272 2.74145 36.0394 1.4 34.3887 0.941814C32.1713 0.0534505 10.6943 -0.381822 4.46414 0.967269C2.81338 1.43054 1.52074 2.76691 1.07923 4.48C0.0784783 9.03636 0.00244058 18.8873 1.10376 23.5454C1.55018 25.2585 2.83791 26.6 4.48867 27.0582C8.87923 28.1069 29.7528 28.2545 34.4132 27.0582C36.0639 26.5949 37.3566 25.2585 37.7981 23.5454C38.8651 18.5818 38.9411 9.34181 37.7736 4.45454Z" fill="black" fill-opacity="0.2"/>
<path d="M25.7547 14L15.7472 8.04364V19.9564L25.7547 14Z" fill="white"/>
</svg>
