<svg width="137" height="15" viewBox="0 0 137 15" fill="none" xmlns="http://www.w3.org/2000/svg">
<path d="M0.61 15V0.279999H18.389C19.7843 0.279999 21.034 0.440999 22.138 0.763C23.2573 1.06967 24.139 1.591 24.783 2.327C25.4423 3.063 25.772 4.06733 25.772 5.34C25.772 6.18333 25.6187 6.881 25.312 7.433C25.0053 7.985 24.5837 8.41433 24.047 8.721C23.5103 9.02767 22.897 9.25 22.207 9.388C21.517 9.526 20.7963 9.61033 20.045 9.641L18.366 9.319C20.1907 9.33433 21.5937 9.411 22.575 9.549C23.5717 9.687 24.2617 9.94 24.645 10.308C25.0437 10.6607 25.243 11.1743 25.243 11.849V15H19.493V12.539C19.493 12.079 19.401 11.734 19.217 11.504C19.0483 11.2587 18.665 11.09 18.067 10.998C17.4843 10.906 16.5797 10.86 15.353 10.86H6.36V15H0.61ZM6.36 7.019H18.389C18.849 7.019 19.2323 6.94233 19.539 6.789C19.861 6.63567 20.022 6.34433 20.022 5.915C20.022 5.51633 19.861 5.248 19.539 5.11C19.2323 4.95667 18.849 4.88 18.389 4.88H6.36V7.019ZM32.7277 12.769V9.319H48.4597V12.769H32.7277ZM27.5757 15L37.4427 0.279999H43.8367L53.7957 15H47.4707L38.9377 1.821H42.3647L33.9007 15H27.5757ZM72.1993 0.279999C74.2693 0.279999 75.979 0.479332 77.3283 0.877999C78.6776 1.27667 79.7356 1.821 80.5023 2.511C81.269 3.201 81.8056 3.99067 82.1123 4.88C82.4343 5.754 82.5953 6.674 82.5953 7.64C82.5953 8.606 82.419 9.53367 82.0663 10.423C81.7136 11.297 81.131 12.079 80.3183 12.769C79.521 13.459 78.4553 14.0033 77.1213 14.402C75.8026 14.8007 74.162 15 72.1993 15H55.6393V0.279999H72.1993ZM61.3893 10.4H71.9693C72.828 10.4 73.5563 10.3463 74.1543 10.239C74.7523 10.1163 75.2276 9.94 75.5803 9.71C75.9483 9.48 76.209 9.19633 76.3623 8.859C76.531 8.50633 76.6153 8.1 76.6153 7.64C76.6153 7.18 76.531 6.78133 76.3623 6.444C76.209 6.09133 75.9483 5.8 75.5803 5.57C75.2276 5.34 74.7523 5.17133 74.1543 5.064C73.5563 4.94133 72.828 4.88 71.9693 4.88H61.3893V10.4ZM102.14 0.279999C104.21 0.279999 105.919 0.479332 107.269 0.877999C108.618 1.27667 109.676 1.821 110.443 2.511C111.209 3.201 111.746 3.99067 112.053 4.88C112.375 5.754 112.536 6.674 112.536 7.64C112.536 8.606 112.359 9.53367 112.007 10.423C111.654 11.297 111.071 12.079 110.259 12.769C109.461 13.459 108.396 14.0033 107.062 14.402C105.743 14.8007 104.102 15 102.14 15H85.5797V0.279999H102.14ZM91.3297 10.4H101.91C102.768 10.4 103.497 10.3463 104.095 10.239C104.693 10.1163 105.168 9.94 105.521 9.71C105.889 9.48 106.149 9.19633 106.303 8.859C106.471 8.50633 106.556 8.1 106.556 7.64C106.556 7.18 106.471 6.78133 106.303 6.444C106.149 6.09133 105.889 5.8 105.521 5.57C105.168 5.34 104.693 5.17133 104.095 5.064C103.497 4.94133 102.768 4.88 101.91 4.88H91.3297V10.4ZM136.788 0.279999L127.473 11.251V15H121.723V11.251L112.408 0.279999H119.193L126.76 9.825H122.505L130.003 0.279999H136.788Z" fill="#0D0D0D"/>
<path d="M0.61 15V0.279999H18.389C19.7843 0.279999 21.034 0.440999 22.138 0.763C23.2573 1.06967 24.139 1.591 24.783 2.327C25.4423 3.063 25.772 4.06733 25.772 5.34C25.772 6.18333 25.6187 6.881 25.312 7.433C25.0053 7.985 24.5837 8.41433 24.047 8.721C23.5103 9.02767 22.897 9.25 22.207 9.388C21.517 9.526 20.7963 9.61033 20.045 9.641L18.366 9.319C20.1907 9.33433 21.5937 9.411 22.575 9.549C23.5717 9.687 24.2617 9.94 24.645 10.308C25.0437 10.6607 25.243 11.1743 25.243 11.849V15H19.493V12.539C19.493 12.079 19.401 11.734 19.217 11.504C19.0483 11.2587 18.665 11.09 18.067 10.998C17.4843 10.906 16.5797 10.86 15.353 10.86H6.36V15H0.61ZM6.36 7.019H18.389C18.849 7.019 19.2323 6.94233 19.539 6.789C19.861 6.63567 20.022 6.34433 20.022 5.915C20.022 5.51633 19.861 5.248 19.539 5.11C19.2323 4.95667 18.849 4.88 18.389 4.88H6.36V7.019ZM32.7277 12.769V9.319H48.4597V12.769H32.7277ZM27.5757 15L37.4427 0.279999H43.8367L53.7957 15H47.4707L38.9377 1.821H42.3647L33.9007 15H27.5757ZM72.1993 0.279999C74.2693 0.279999 75.979 0.479332 77.3283 0.877999C78.6776 1.27667 79.7356 1.821 80.5023 2.511C81.269 3.201 81.8056 3.99067 82.1123 4.88C82.4343 5.754 82.5953 6.674 82.5953 7.64C82.5953 8.606 82.419 9.53367 82.0663 10.423C81.7136 11.297 81.131 12.079 80.3183 12.769C79.521 13.459 78.4553 14.0033 77.1213 14.402C75.8026 14.8007 74.162 15 72.1993 15H55.6393V0.279999H72.1993ZM61.3893 10.4H71.9693C72.828 10.4 73.5563 10.3463 74.1543 10.239C74.7523 10.1163 75.2276 9.94 75.5803 9.71C75.9483 9.48 76.209 9.19633 76.3623 8.859C76.531 8.50633 76.6153 8.1 76.6153 7.64C76.6153 7.18 76.531 6.78133 76.3623 6.444C76.209 6.09133 75.9483 5.8 75.5803 5.57C75.2276 5.34 74.7523 5.17133 74.1543 5.064C73.5563 4.94133 72.828 4.88 71.9693 4.88H61.3893V10.4ZM102.14 0.279999C104.21 0.279999 105.919 0.479332 107.269 0.877999C108.618 1.27667 109.676 1.821 110.443 2.511C111.209 3.201 111.746 3.99067 112.053 4.88C112.375 5.754 112.536 6.674 112.536 7.64C112.536 8.606 112.359 9.53367 112.007 10.423C111.654 11.297 111.071 12.079 110.259 12.769C109.461 13.459 108.396 14.0033 107.062 14.402C105.743 14.8007 104.102 15 102.14 15H85.5797V0.279999H102.14ZM91.3297 10.4H101.91C102.768 10.4 103.497 10.3463 104.095 10.239C104.693 10.1163 105.168 9.94 105.521 9.71C105.889 9.48 106.149 9.19633 106.303 8.859C106.471 8.50633 106.556 8.1 106.556 7.64C106.556 7.18 106.471 6.78133 106.303 6.444C106.149 6.09133 105.889 5.8 105.521 5.57C105.168 5.34 104.693 5.17133 104.095 5.064C103.497 4.94133 102.768 4.88 101.91 4.88H91.3297V10.4ZM136.788 0.279999L127.473 11.251V15H121.723V11.251L112.408 0.279999H119.193L126.76 9.825H122.505L130.003 0.279999H136.788Z" fill="black" fill-opacity="0.2"/>
</svg>
