<svg id="Layer_1" xmlns="http://www.w3.org/2000/svg" viewBox="0 0 200 200"><defs><pattern id="New_Pattern" x="0" y="0" width="100" height="100" patternUnits="userSpaceOnUse"><path style="fill:none" d="M0 0h100v100H0z"/><path class="cls-5" d="M0 98h100v104H0z"/><path d="M82 93Z" style="fill:#fff"/><path class="cls-5" d="M0-2h100v104H0z"/><path class="cls-4" d="M102 57v-1h-1l1-1h-1l-1-2h-2l1-1-1-1h2v1h3l1 1v-2h1v-2l-2-2-1-1 1-1v-1h1l-1-3h-2l-2-1h-1l-1 1h-2l-1 1h-1l-1 1h-3l1 1h-1 1v1l-1 1h-1v1-1h-2v1-1h1v1h-1l1 1h-1l1 1 1 1v1h-2v-2 1l-1-1v2l1 1v-1l2 1v1l1 1v1l1 1h-1v1h2-1v2l-1 1v1h1v2h-1l1 1-1 1a3 3 0 0 0 0 2v1h2v-1 1h4-1 2l1 1v1l1-1h1l1-1h1v-2 1-1c-1 0-1 0 0 0h1v-2h-2l1-1s1 0 0 0v-1h-1v-1h1l2-1h1c0-1 0 0 0 0v-2l-1-2-1 1h-1 1ZM86 37l1-1h-1l3-3-1-1-2-1h-1l-2 1v-3h-1l-2 4v1l-2 2-5 2-1 1v5h3l1-1v-1l2-2 1 1h1l1-2h1l2 1-1 1 1 2v-4l1-2h1ZM85 99v4l3 1h2l2-1 1-1 1-1 1-2c-1 0-1 0 0 0v-2l-1-1-2-1h-2c-1-2-2-3-4-3l-2-1-2 2v1l-1 1-1 3 1 1 2-1 1 1h1ZM91 87l-1 2v1h2v-1h2v1h1v-1h-1v-2l-1-2h-2l-1 1v1h1ZM80 86l2-1h2l1 1h-1 1l2 1 1 1 1-1-1-1-2-1-2-1h-2l-1-1h-1l-2-1v-1h-1v-1l-1 2-2 2h-1l1 1h1l1-1s0-1 0 0h1l2-1 1 1 1 1-1 1-2 1h1l1-1ZM15 98h-1v-1l1-1h1v1l-1 1 1 1v-1h1l-1-1v-3l1-1 1-1h1v1l1 1 2-1h1v2h1v-2h1v-1l-1-1-1-1h-1l1-1h1v1l2 1h2v-1l1-1v-1h-3v1h-1v-1l1-1h1v-2a50 50 0 0 0-2-1l-1 1v-1h3v-1h1v1h-1v1h1v-1h1v-1h-1l-1-1h1-1l1-1v-1s-1 0 0 0v-1l-1-1h1v1l2-1h2l1-1v-1h-1 4v-2h-1l-2 1v-2l-2-1-2-1h1v-1h-1l-2 1h-1v-1l-1 1v1-1h-1l-1-1-1 2 1 1h2l-1 1-2-1-1 1v1l2 1h-4l-1 1h3v2h1l1-1h1v-1l1 1v-1l2 1v1l-1 1h2l-1 1h-1v1h-2l-2 1h-2l-2 1-1 2-1 1-1 1v-2l1-1h-2v4l1-1v2l-1 1-1 1-1 1-1 1h1v1l-2 1c-1 1-2 2-1 4l-1 2v1h2v1l1 1h1v-2h-1l-1-1H9v-1l1-1v-1h1l2 1 1 1v2l1 2h1v-3l-1 1v-2l-1-1v-2l1 1v-1ZM8 22l-1 1 1 1v2-1h3v-3h1v1-1h-1v1h1l1-1 1 1h-1v1l1 1v1l1 1 1-1h1l2 1h1l1-1v1l1-1v3l1 1v1l1-1v-1h1l-1 1v2h3v-1l-1 1v-3l1 1h1l1-1h1l-1 1h1l1-1h1l-2-2h2v-1h1v1-2l1-1h1l-2-1v-1l-2 1-1-1h3l1-1h4l-1 1h-2l1 1v1h-1v1h-1 1v1h-1v1h2-1v-1h1v1h1l2 1v-1h1-1v1h1v-2h1v1l1-1v1h1v-1l-1-1 1-1v1l1-1h-1v-1h1v-4l-1 2h-1l1-1 1-1-1-1-3-1-1-1-2-1h-7l-1 1h-7l-2 1-1 2h-1v1l-1 1-2 1h-1v-1l-2 1v-3h-1l-1 1v3H8v-1ZM10 82h1v-1h3l2-1v-1h-1l1 1h-1l-1-1c-1 0-1 0 0 0v-1 1l-1-1v1h-2v-1l2-1-1-1-1 1v-1h2v1l1-1h-1 2v1l1-1h-1v-4l1-1 1 1-1-2v-1h-1l-2-1-2-1H8l-1 1-1 1-1 1v6l2 2v1l-1 1 1 1s0-1 0 0l1 2h2v-1ZM31 63v-2l-1-2 1-1-2-2c-1 0-1 0 0 0h2l-1-2-1-3-1-1-1 1v-2l-3-1h-1l1-2h-2l-1 1v2h-3l-1 2h-3v3l1 1v1l1-1v1h1v-1h1v-2l1-1h1l1-1 1 2 1 1-1 1h2-1l-1 1-1 1-1 2-1 1v2l-2-1v-1l2-1 1-2-1-1-1 1h-2l-1 2h1v3h-1l1 1h3v-1l1-1v-1l2-1v2l3 1h2l2-1h2v2ZM53 48h-1l1-1h-1l1-1-1-1v-2l-1-1v2h-1v-3h-3 1v-1h1l-1-1-1-1-1 1-2 1h-1l-2 2v2h1v1l1 1h1l-1 1v1l-1-1v-2h-1v-2h-2l-1 1v1l-1 1 1 1v2l1 1v1l1 1h-1v3-1 1l1 2v1l-1 1h1l-1 1h1l-1 1v5h1v-1h1v-1l1-1v1h1v-3h1v1h1-1l1-1h1-1l1 1v-2h-1 1v1l-1-1h-1l-1-1 1-1h2l-1-1v-2l-1-1h1c1 0 0 0 0 0h1-1v-1h2l1 1h-1l1 1h2-1v-1l1-1v1-1h-1l-1-1h1v-1 1h1v-1h1-1l-2-1h-1v-2l1 1v1h1v1l1-1h2-1v-2l1-1v2h1v-1ZM12 43l1-1 2-1 1 1h1v-1h1v-1l-1-1h1-2v2l-1-1c1 0 0 0 0 0v-1l1-1 1-1v1h1v-2l-1-1 1-1-1-1v-1h-3l-1-1-1 1 1 1-1 2-1-1 1-1h-2v3h1v2h1v2l1 1h-2v3h3l1-1h-3ZM52 102v-1h3l-1-2-3-1-2-1v-1l-1 2-2 1-2-1-1-1-2-1h-1l-3-1h-1l-2 1v1l-1 1c1 1 2 0 2-1l2 1 1 1v6l2 1h1l1 1 1-1h1l2 2h1l-2 2v1l-1 1-2-1h-1l-1 1 1 1h1l3-1 1-1 1-1v-2h2l1-1v-2l-2-3-1-1-1 1v-1l1-1 1 1h1l2-1 1 1v1a778 778 0 0 0 1 0h-1ZM55 72l-3 1h-2l-2 1-1 1v1l-3 1-2 3v1h1l1-1h1v3l1 1h1v2l2-1-1-1h1l2 1v-1h2l1 1c1 0 2 0 2-2l1-1-1-1-2-3v-4l1-1v-1h1-1ZM77 74h-2l1 1 1-2v1l1 1h-1v-1 2h2v1-2s0 1 0 0h2l-1-2 1-1 1 1-1 1h2v-1 1l1-1-1-2v-1l-1-1-1 1v-1l-1-2-1 1v-1h-1v-1h-1v2-1h-1l1 1v1h-1v2h-1v3l1-1h1v1ZM72 54v1h-1v-1l-1 1v1-2l-1-1h-1l-2 1h-3v-2l-2 1-1-1h-1v1l-1 2 1 1 1 1h1l1 1h-1v1h1v-1l1 1h2v2h1v-1h-1 1v1h2v2l-1-1h2v3h-1l-1 1h-1v2l-1 1 1 1v1-2h1v1l1 1h1l1 1v-5l-1-1v-1h1s0 1 0 0h1l-1-2 1 1v-1l1-1v-5l-1-1v-1l1 1h1v-1 1l-1-1v-1ZM50 29h1v2h2-2v1h1v1h2-2l1 1v2h1l1-1c0-1 0-1 0 0h1l1 1 1-1 1-1v-2l1 1 1 1v1h1v-1l2-1 1-1v-1l1-1 1-1v1h2-1v-1h3l1-1-1-1h3v-1h-1l1-1h-1v-2h1v-2l-1-1v-1l-1 1v1h-2v-1 1h1v-2l1-2v-1l-2-1h-1l-1 1 1 1h-1v2l1 1h-3v-1 1l1 1h1l-1 1h-1v1h1l1 1h1v1h-1v1h-2 1v-1h-2l-1 1-2-1h-1l-1 1h1v1h5v1h-4v1l-1 1-1-1v1l-1-1-1-1v-1h1-1v-1l-1-1-1 1h-1l-1 1h-4v2h-1l1 1v-1ZM99 20v1h-1l-1 1 1-1-1-1h-1v-1h1l1-1h-2l1-1v-1h-1l1-1v1h1v-1h-1v-2l-2-1h-1l1-1h3l1-1V8l-3-1-1 1h-1l-1 1-1 2v1l1 1v1h-3l-2-1-1 1h-1l-1 1-1 1v1h-2v1l2 1 1 1 1 1 1-1-1-1-1-1h1l2 1 1-1 1-1v2l-1 1h-1v-1 2l1 2h2-1v-2l1 1 1-1h2l1 1 1 2v-2l1 1 1 1h1l1-1 1-1h1v1l-2 1-1 1v1h1v-1l1-1v1l1 1s-1 0 0 0v-1l1-1 2-1v-1l1-1v-1l-1-1-1-1v-1h1v-1l-1-1h-1l-1 1-1 1 1 1h-1 1l1-1 1 1h-1l-2 1h-1l-1 1ZM77 107h1-1v-2l-1-2 1-2-3-1v-1h3l-1-2-1-4h-2v1l-1-1v-1l-3-1h-1l1-2v-1h-2l-1 1v2l-3 1-1 2h-3v4l1 1v-1l1 1h1l-1-1h2v-2l1-1h1l1-1 1 2 1 1-1 1h2v1l-1 1-2 1-1 1-2 1 1 3-2-1v-2l2-1 1-2v1-1h-1l-1 1h-1 1-3v1l1 1v1l-1 2 1 1h3v-1l1-1v-1l2-1h1l-1 2h3l1 1h2l1-1h3v2Z"/><g><path class="cls-4" d="M2 57v-1H1l1-1H1l-1-2h-2v-2h2v1h3l1 1v-2h1v-2l-2-2-1-1 1-1v-1h1l-1-3H1l-2-1h-1l-1 1h-2l-1 1h-1l-1 1h-3l1 1h-1 1v1l-1 1h-1v1-1h-2v1-1h1v1h-1l1 1h-1l1 1 1 1v1h-2v-2 1l-1-1v2l1 1v-1l2 1v1l1 1v1l1 1h-1v1h2-1v2l-1 1v1h1v2h-1l1 1-1 1a3 3 0 0 0 0 2v1h2v-1 1h4-1 2l1 1v1l1-1h1l1-1h1v-2 1-1c-1 0-1 0 0 0h1v-2H0l1-1s1 0 0 0v-1H0v-1h1l2-1h1c0-1 0 0 0 0v-2l-1-2-1 1H1h1ZM-1 20v1h-1l-1 1 1-1-1-1h-1v-1h1l1-1h-2l1-1v-1h-1l1-1v1h1v-1h-1v-2l-2-1h-1l1-1h3l1-1V8l-3-1-1 1h-1l-1 1-1 2v1l1 1v1h-3l-2-1-1 1h-1l-1 1-1 1v1h-2v1l2 1 1 1 1 1 1-1-1-1-1-1h1l2 1 1-1 1-1v2l-1 1h-1v-1 2l1 2h2-1v-2l1 1 1-1h2l1 1 1 2v-2l1 1 1 1h1l1-1 1-1h1v1l-2 1-1 1v1h1v-1l1-1v1l1 1s-1 0 0 0v-1l1-1 2-1v-1l1-1v-1l-1-1-1-1v-1h1v-1l-1-1H3l-1 1-1 1 1 1H1h1l1-1 1 1H3l-2 1H0l-1 1Z"/></g><g><path class="cls-5" d="M0-102h100V2H0z"/><path class="cls-4" d="M85-1v4l3 1h2l2-1 1-1 1-1 1-2c-1 0-1 0 0 0v-2l-1-1-2-1h-2c-1-2-2-3-4-3l-2-1-2 2v1l-1 1-1 3 1 1 2-1 1 1h1ZM15-2h-1v-1l1-1h1v1l-1 1 1 1v-1h1l-1-1v-3l1-1 1-1h1v1l1 1 2-1h1v2h1v-2h1v-1l-1-1-1-1h-1l1-1h1v1l2 1h2v-1l1-1v-1h-3v1h-1v-1l1-1h1v-2a50 50 0 0 0-2-1l-1 1v-1h3v-1h1v1h-1v1h1v-1h1v-1h-1l-1-1h1-1l1-1v-1s-1 0 0 0v-1l-1-1h1v1l2-1h2l1-1v-1h-1 4v-2h-1l-2 1v-2l-2-1-2-1h1v-1h-1l-2 1h-1v-1l-1 1v1-1h-1l-1-1-1 2 1 1h2l-1 1-2-1-1 1v1l2 1h-4l-1 1h3v2h1l1-1h1v-1l1 1v-1l2 1v1l-1 1h2l-1 1h-1v1h-2l-2 1h-2l-2 1-1 2-1 1-1 1v-2l1-1h-2v4l1-1v2l-1 1-1 1-1 1-1 1h1v1l-2 1C9-3 8-2 9 0L8 2v1h2v1l1 1h1V3h-1l-1-1H9V1l1-1v-1h1l2 1 1 1v2l1 2h1V2l-1 1V1l-1-1v-2l1 1v-1ZM52 2V1h3l-1-2-3-1-2-1v-1l-1 2-2 1-2-1-1-1-2-1h-1l-3-1h-1l-2 1v1l-1 1c1 1 2 0 2-1l2 1 1 1v6l2 1h1l1 1 1-1h1l2 2h1l-2 2v1l-1 1-2-1h-1l-1 1 1 1h1l3-1h1l1-2V8h2l1-1V5l-2-3-1-1-1 1V1l1-1 1 1h1l2-1 1 1v1a778 778 0 0 0 1 0h-1ZM77 7h1-1V5l-1-2 1-2-3-1v-1h3l-1-2-1-4h-2v1l-1-1v-1l-3-1h-1l1-2v-1h-2l-1 1v2l-3 1-1 2h-3v4l1 1v-1l1 1h1l-1-1h2v-2l1-1h1l1-1 1 2 1 1-1 1h2v1l-1 1-2 1-1 1-2 1 1 3-2-1V3l2-1 1-2v1-1h-1l-1 1h-1 1-3v1l1 1v1l-1 2 1 1h3V6l1-1V4l2-1h1l-1 2h3l1 1h2l1-1h3v2Z"/></g></pattern><style>.cls-4{fill:#fee440;opacity:.1}.cls-5{fill:#1c9a74}</style></defs><path style="fill:url(#New_Pattern)" d="M0 0h200v200H0z"/></svg>